<?xml version="1.0" standalone="no"?>
<!DOCTYPE svg PUBLIC "-//W3C//DTD SVG 20010904//EN"
 "http://www.w3.org/TR/2001/REC-SVG-20010904/DTD/svg10.dtd">
<svg version="1.0" xmlns="http://www.w3.org/2000/svg"
 width="148.000000pt" height="148.000000pt" viewBox="0 0 148.000000 148.000000"
 preserveAspectRatio="xMidYMid meet">
<metadata>
Created by potrace 1.16, written by Peter Selinger 2001-2019
</metadata>
<g transform="translate(0.000000,148.000000) scale(0.100000,-0.100000)"
fill="#000000" stroke="none">
<path d="M616 1445 c-249 -47 -447 -210 -542 -443 -34 -85 -57 -232 -49 -312
29 -270 168 -476 400 -590 111 -55 189 -73 315 -74 129 0 202 18 329 80 175
86 309 253 363 451 43 163 21 363 -57 511 -146 279 -458 433 -759 377z m155
-202 c39 -23 79 -83 80 -119 1 -16 -2 -58 -6 -94 -6 -58 -5 -68 17 -99 40 -58
65 -70 163 -80 50 -4 104 -15 120 -24 63 -32 115 -112 115 -174 0 -111 -96
-212 -202 -213 -21 0 -68 12 -105 26 -141 54 -279 23 -370 -83 -62 -72 -93
-93 -152 -100 -68 -8 -132 23 -165 80 -32 57 -39 93 -25 136 39 121 159 166
273 102 80 -46 127 -55 189 -37 147 43 186 220 73 324 -33 30 -56 42 -90 47
-90 14 -156 83 -156 163 0 57 37 123 82 145 44 22 122 22 159 0z"/>
</g>
</svg>
