<?xml version="1.0" encoding="UTF-8"?>
<!DOCTYPE svg PUBLIC "-//W3C//DTD SVG 1.1//EN" "http://www.w3.org/Graphics/SVG/1.1/DTD/svg11.dtd">
<svg xmlns="http://www.w3.org/2000/svg" version="1.1" width="148px" height="148px" style="shape-rendering:geometricPrecision; text-rendering:geometricPrecision; image-rendering:optimizeQuality; fill-rule:evenodd; clip-rule:evenodd" xmlns:xlink="http://www.w3.org/1999/xlink">
<g><path style="opacity:1" fill="#fcfdfd" d="M -0.5,-0.5 C 48.8333,-0.5 98.1667,-0.5 147.5,-0.5C 147.5,48.8333 147.5,98.1667 147.5,147.5C 98.1667,147.5 48.8333,147.5 -0.5,147.5C -0.5,98.1667 -0.5,48.8333 -0.5,-0.5 Z"/></g>
<g><path style="opacity:1" fill="#156ea3" d="M 141.5,95.5 C 141.046,92.8602 139.879,90.5268 138,88.5C 133.224,83.5536 128.391,78.8869 123.5,74.5C 121.183,70.5182 118.183,67.1849 114.5,64.5C 105.232,52.8958 95.2322,41.8958 84.5,31.5C 81.6417,27.4804 77.975,24.3138 73.5,22C 61.4653,20.0429 54.4653,25.0429 52.5,37C 54.0191,48.5119 60.6858,54.5119 72.5,55C 82.916,60.4803 86.416,68.9803 83,80.5C 73.495,94.2113 61.995,96.0446 48.5,86C 30.8729,82.3959 22.7063,89.5626 24,107.5C 25.9779,111.638 28.8112,114.971 32.5,117.5C 39.8761,125.541 46.8761,133.874 53.5,142.5C 23.8904,132.72 6.7237,112.387 2,81.5C 0.702621,40.8032 19.536,14.6366 58.5,3C 91.7052,-1.72119 117.539,9.77881 136,37.5C 146.217,56.1795 148.05,75.5128 141.5,95.5 Z"/></g>
<g><path style="opacity:1" fill="#fafbfc" d="M 84.5,31.5 C 83.8333,38.4952 83.6666,45.4952 84,52.5C 85.4612,56.2597 87.9612,59.0931 91.5,61C 99.2445,61.8387 106.911,63.0054 114.5,64.5C 118.183,67.1849 121.183,70.5182 123.5,74.5C 127.39,86.6608 123.723,95.8275 112.5,102C 110.256,102.906 107.923,103.406 105.5,103.5C 98.6364,102.379 91.9697,100.545 85.5,98C 77.0662,97.0864 69.3996,99.0864 62.5,104C 58.6002,107.81 54.9336,111.81 51.5,116C 45.3522,119.763 39.0189,120.263 32.5,117.5C 28.8112,114.971 25.9779,111.638 24,107.5C 22.7063,89.5626 30.8729,82.3959 48.5,86C 61.995,96.0446 73.495,94.2113 83,80.5C 86.416,68.9803 82.916,60.4803 72.5,55C 60.6858,54.5119 54.0191,48.5119 52.5,37C 54.4653,25.0429 61.4653,20.0429 73.5,22C 77.975,24.3138 81.6417,27.4804 84.5,31.5 Z"/></g>
<g><path style="opacity:1" fill="#184f71" d="M 84.5,31.5 C 95.2322,41.8958 105.232,52.8958 114.5,64.5C 106.911,63.0054 99.2445,61.8387 91.5,61C 87.9612,59.0931 85.4612,56.2597 84,52.5C 83.6666,45.4952 83.8333,38.4952 84.5,31.5 Z"/></g>
<g><path style="opacity:1" fill="#144e70" d="M 123.5,74.5 C 128.391,78.8869 133.224,83.5536 138,88.5C 139.879,90.5268 141.046,92.8602 141.5,95.5C 133.745,118.422 118.411,133.922 95.5,142C 81.486,146.193 67.486,146.36 53.5,142.5C 46.8761,133.874 39.8761,125.541 32.5,117.5C 39.0189,120.263 45.3522,119.763 51.5,116C 54.9336,111.81 58.6002,107.81 62.5,104C 69.3996,99.0864 77.0662,97.0864 85.5,98C 91.9697,100.545 98.6364,102.379 105.5,103.5C 107.923,103.406 110.256,102.906 112.5,102C 123.723,95.8275 127.39,86.6608 123.5,74.5 Z"/></g>
</svg>
